<svg xmlns="http://www.w3.org/2000/svg" xml:space="preserve" width="2000" height="342" viewBox="0 0 2000 342" data-version="1" data-id="lg_fkqtmq5eQ9RMi3U9OO"><g id="outer-wrapper" data-padding="20" transform="matrix(1,0,0,1,0,0)"><g id="inner-wrapper" transform="matrix(0.9358974358974359,0,0,0.9358974358974359,10,10.961538461538453)"><path fill="#a53860" d="M1212.3857366743139 171.58699999999996A49.604 49.604 0 0 0 1154.303736674314 110.79699999999994L1072.7537366743138 81.04699999999994A49.604 49.604 0 0 0 989.1727366743139 90.15699999999995C984.8037366743139 99.59899999999996 956.4847366743139 164.56299999999996 956.2287366743138 165.26199999999997C952.4737366743138 175.55599999999995 957.7747366743139 186.946 968.0687366743139 190.70199999999997C1010.8947366743139 206.32499999999996 1041.845736674314 176.19299999999996 1055.2707366743139 159.15199999999996L1117.3877366743138 181.81199999999998C1116.6857366743138 203.49499999999998 1120.987736674314 246.487 1163.7897366743139 262.102C1174.083736674314 265.85699999999997 1185.4737366743138 260.55600000000004 1189.2297366743137 250.26200000000003C1189.4847366743138 249.56200000000004 1209.6487366743138 181.62400000000005 1212.3867366743139 171.58700000000002M1023.6397366743139 139.69200000000004C1008.1977366743139 134.05800000000002 1000.2457366743139 116.97400000000002 1005.8797366743139 101.53200000000007S1028.5977366743139 78.13800000000006 1044.0397366743139 83.77200000000008S1067.432736674314 106.4900000000001 1061.7997366743139 121.93200000000004C1056.1657366743138 137.37400000000005 1039.0807366743138 145.32500000000007 1023.6397366743139 139.69200000000004M1154.119736674314 187.29200000000006C1138.677736674314 181.65800000000004 1130.725736674314 164.57400000000004 1136.359736674314 149.1320000000001S1159.077736674314 125.73800000000008 1174.519736674314 131.3720000000001S1197.912736674314 154.09000000000012 1192.2797366743139 169.53200000000007C1186.6457366743139 184.97400000000007 1169.5607366743138 192.9250000000001 1154.119736674314 187.29200000000006 "></path><path fill="#a53860" d="M1057.3597366743138 112.39199999999997L1043.3797366743138 107.29199999999994L1048.479736674314 93.31199999999995L1034.499736674314 88.21199999999996L1029.3997366743138 102.19199999999998L1015.4197366743139 97.09199999999998L1010.3197366743138 111.07199999999997L1024.2997366743139 116.172L1019.1997366743138 130.15200000000002L1033.1797366743137 135.25200000000004L1038.2797366743139 121.27200000000002L1052.259736674314 126.37200000000004ZM1167.7187366743137 150.01199999999997C1165.8417366743138 155.15899999999996 1160.1467366743138 157.809 1154.998736674314 155.932C1149.8517366743138 154.054 1147.201736674314 148.359 1149.0787366743139 143.21199999999996C1150.9567366743138 138.06399999999994 1156.6517366743137 135.41399999999996 1161.798736674314 137.29199999999994C1166.9467366743138 139.16899999999995 1169.596736674314 144.86399999999995 1167.7187366743137 150.01199999999997M1179.5597366743139 175.45199999999997C1177.681736674314 180.59899999999996 1171.9867366743138 183.249 1166.8397366743138 181.37199999999999C1161.6917366743137 179.494 1159.0417366743138 173.799 1160.9197366743138 168.65199999999996C1162.7967366743137 163.50399999999993 1168.4917366743139 160.85399999999996 1173.6397366743138 162.73199999999994C1178.786736674314 164.60899999999995 1181.4367366743138 170.30399999999995 1179.5597366743136 175.45199999999997 "></path><path fill="none" stroke="#a53860" stroke-width="1.06" d="M1060.9057366743139 114.35499999999999A110.495 110.495 0 1 0 1060.9057366743139 335.345A110.495 110.495 0 1 0 1060.9057366743139 114.35499999999999Z "></path><rect width="269.592" height="318.66" x="525.579736674314" y="-314.28000000000003" fill="none" rx="0" ry="0" transform="translate(400.53 314.23)"></rect><path fill="#da627d" d="M930.4757366743139 342.04999999999995Q917.4957366743139 342.04999999999995 909.6057366743139 335.41999999999996Q901.7057366743139 328.79999999999995 901.7057366743139 318.36Q901.7057366743139 306.52 914.1157366743139 293.27Q927.655736674314 278.88 953.5957366743139 267.32000000000005T1021.275736674314 245.04L1025.785736674314 223.04999999999998L1021.555736674314 227.28L1014.0857366743139 234.75000000000003Q1011.1257366743139 237.71 1008.8657366743139 239.12000000000003Q1000.1257366743139 245.61000000000004 994.2057366743138 245.61000000000004Q986.3057366743138 245.61000000000004 986.3057366743138 235.46000000000006Q986.3057366743138 220.79000000000005 1008.3057366743138 203.8700000000001Q1026.355736674314 189.77000000000007 1044.115736674314 189.77000000000007Q1058.2157366743138 189.77000000000007 1058.2157366743138 197.95000000000007Q1058.2157366743138 201.6200000000001 1054.265736674314 206.97000000000006Q1053.4257366743138 207.82000000000008 1052.855736674314 207.82000000000008Q1051.7357366743138 207.82000000000008 1051.7357366743138 206.69000000000008Q1051.7357366743138 206.13000000000008 1052.295736674314 205.5600000000001Q1055.115736674314 202.46000000000006 1055.115736674314 199.64000000000007Q1055.115736674314 194.00000000000009 1042.7057366743138 194.00000000000009Q1026.6357366743139 194.00000000000009 1010.2757366743139 209.51000000000008Q995.3357366743138 223.89000000000007 995.3357366743138 233.20000000000007Q995.3357366743138 236.8700000000001 998.9957366743139 236.8700000000001Q1001.8157366743138 236.8700000000001 1005.4857366743139 234.89000000000007Q1015.6357366743139 230.38000000000008 1022.6857366743138 222.20000000000007Q1025.5057366743138 218.54000000000005 1027.4757366743138 211.20000000000007Q1028.8857366743139 205.28000000000006 1029.1757366743138 201.0500000000001Q1030.0157366743138 197.6700000000001 1035.6557366743139 197.6700000000001Q1040.7357366743138 197.6700000000001 1040.7357366743138 200.21000000000012Q1040.7357366743138 204.7200000000001 1038.4757366743138 215.2900000000001Q1036.2257366743138 225.8700000000001 1032.275736674314 242.51000000000013Q1034.245736674314 241.94000000000014 1035.9357366743138 241.94000000000014H1041.575736674314Q1042.7057366743138 241.94000000000014 1043.835736674314 242.2200000000001Q1057.085736674314 243.9200000000001 1057.085736674314 250.9700000000001Q1057.085736674314 255.76000000000013 1051.7357366743138 260.2700000000001Q1051.4457366743138 261.1200000000001 1050.325736674314 261.1200000000001Q1049.1957366743138 261.1200000000001 1049.1957366743138 260.2700000000001Q1049.1957366743138 259.1400000000001 1050.0357366743137 258.8600000000001Q1053.7057366743138 255.20000000000007 1053.7057366743138 252.38000000000008Q1053.7057366743138 246.7400000000001 1042.1457366743139 246.7400000000001Q1040.1657366743138 246.7400000000001 1037.345736674314 247.02000000000007T1030.865736674314 247.86000000000004Q1020.1457366743138 287.63 996.4557366743138 311.31000000000006Q983.2057366743138 324.85 966.2857366743139 333.03Q947.3957366743139 342.04999999999995 930.4757366743139 342.04999999999995M936.675736674314 336.68999999999994Q960.0857366743139 336.68999999999994 983.2057366743139 316.66999999999996Q1010.275736674314 292.41999999999996 1020.145736674314 250.11999999999998Q1010.555736674314 252.66 1003.3657366743139 254.76999999999995Q996.175736674314 256.89 991.1057366743139 258.5799999999999Q980.665736674314 261.67999999999995 971.645736674314 265.06999999999994Q962.615736674314 268.44999999999993 955.005736674314 271.8299999999999Q933.295736674314 281.69999999999993 922.015736674314 294.9599999999999Q912.145736674314 306.52 912.145736674314 317.79999999999995Q912.145736674314 326.53999999999996 918.905736674314 331.6199999999999Q925.675736674314 336.68999999999994 936.675736674314 336.68999999999994M1075.985736674314 248.98999999999992Q1067.805736674314 247.29999999999993 1067.805736674314 236.0199999999999Q1067.805736674314 228.6899999999999 1071.475736674314 221.6399999999999L1069.775736674314 223.3299999999999L1063.015736674314 229.5299999999999Q1062.1657366743138 230.65999999999988 1061.315736674314 230.65999999999988Q1059.9057366743139 230.65999999999988 1059.9057366743139 229.24999999999986Q1060.475736674314 227.83999999999983 1061.8857366743139 226.42999999999986Q1067.245736674314 221.63999999999984 1072.035736674314 216.41999999999987T1081.055736674314 205.55999999999986Q1083.315736674314 203.0299999999999 1086.1357366743139 203.0299999999999Q1089.515736674314 203.0299999999999 1089.515736674314 205.84999999999988Q1089.515736674314 207.2599999999999 1084.4457366743138 215.71999999999989Q1081.6257366743139 220.5099999999999 1079.9357366743138 223.3299999999999Q1078.235736674314 226.1499999999999 1077.9557366743138 226.7099999999999Q1074.855736674314 233.47999999999988 1074.855736674314 238.55999999999992Q1074.855736674314 243.0699999999999 1077.115736674314 243.6299999999999L1079.085736674314 243.91999999999993Q1084.7257366743138 243.91999999999993 1091.775736674314 236.15999999999994Q1098.825736674314 228.40999999999994 1103.9057366743139 217.40999999999994Q1103.055736674314 204.71999999999994 1106.7257366743138 197.38999999999996Q1110.105736674314 191.17999999999998 1114.335736674314 191.17999999999998Q1119.1257366743139 191.17999999999998 1119.1257366743139 197.38999999999996Q1119.1257366743139 198.22999999999993 1118.565736674314 200.48999999999998Q1116.595736674314 209.23 1108.4157366743138 215.99999999999997Q1108.6957366743138 222.19999999999996 1113.485736674314 227.42Q1118.285736674314 232.64000000000001 1125.055736674314 232.64000000000001Q1132.6657366743138 232.64000000000001 1139.715736674314 225.02Q1141.975736674314 222.77 1142.255736674314 224.18000000000004Q1142.535736674314 224.46 1142.535736674314 225.30000000000004Q1142.535736674314 225.87000000000003 1141.6857366743138 227.28000000000006Q1134.355736674314 235.46000000000006 1124.765736674314 235.46000000000006Q1118.005736674314 235.46000000000006 1112.6457366743139 231.3700000000001T1105.315736674314 221.3600000000001Q1099.6757366743138 234.04999999999998 1091.075736674314 242.07999999999996Q1082.4657366743138 250.11999999999998 1075.985736674314 248.98999999999998 "></path></g><rect width="312" height="342" x="844" y="0" id="space-saver" fill="transparent" stroke="transparent"></rect></g></svg>